PathFileType	4	(X/Y/Z)	Walk3.trc
DataRate	CameraRate	NumFrames	NumMarkers	Units	OrigDataRate	OrigDataStartFrame	OrigNumFrames
200.000000	200.000000	4	59	mm	200.000000	457	578
Frame#	Times		CLAV		STRN		RASI		RACR1		RUA1		RElbow		RFA1		RWRU		LACR1		LUA1		LFA1		LCAR		RTH1		RTH3		RTH2		LTH3		LLFC		LTB1		LTB3		LTB4		LToe		LTH2		RFHD		LTH4		LFHD		LTB2		RBack		RTH4		LMT1		RCAR		RWRR		C7		RPSI		LMT5		LTH1		T10		LMMAL		RLFC		RTB1		LPSI		LLMAL		RBHD		LElbow		LBHD		RTB2		RTB4		RToe		RElbowM		LWRU		RTB3		LWRR		RMT1		RLMAL		RMMAL		LASI		RMT5		RCAL		LElbowM		LCAL
			X1	Y1	Z1	X2	Y2	Z2	X3	Y3	Z3	X4	Y4	Z4	X5	Y5	Z5	X6	Y6	Z6	X7	Y7	Z7	X8	Y8	Z8	X9	Y9	Z9	X10	Y10	Z10	X11	Y11	Z11	X12	Y12	Z12	X13	Y13	Z13	X14	Y14	Z14	X15	Y15	Z15	X16	Y16	Z16	X17	Y17	Z17	X18	Y18	Z18	X19	Y19	Z19	X20	Y20	Z20	X21	Y21	Z21	X22	Y22	Z22	X23	Y23	Z23	X24	Y24	Z24	X25	Y25	Z25	X26	Y26	Z26	X27	Y27	Z27	X28	Y28	Z28	X29	Y29	Z29	X30	Y30	Z30	X31	Y31	Z31	X32	Y32	Z32	X33	Y33	Z33	X34	Y34	Z34	X35	Y35	Z35	X36	Y36	Z36	X37	Y37	Z37	X38	Y38	Z38	X39	Y39	Z39	X40	Y40	Z40	X41	Y41	Z41	X42	Y42	Z42	X43	Y43	Z43	X44	Y44	Z44	X45	Y45	Z45	X46	Y46	Z46	X47	Y47	Z47	X48	Y48	Z48	X49	Y49	Z49	X50	Y50	Z50	X51	Y51	Z51	X52	Y52	Z52	X53	Y53	Z53	X54	Y54	Z54	X55	Y55	Z55	X56	Y56	Z56	X57	Y57	Z57	X58	Y58	Z58	X59	Y59	Z59

457	2.285	415.18	1336.3	26.758	488.79	1112.4	27.766	448.39	942.48	174.05	374.64	1349.8	202.49	381.33	1140.4	267.88	379.92	1032.2	293.53	484.82	918.47	275.96	499.42	805.96	277.89	340.74	1349.8	-137.69	290.05	1146.3	-181.49	295.86	904.89	-213.62	299.06	744.6	-222.86	346.47	739.05	211.57	328.66	555.85	166.72	402.46	652.09	157.08	441.67	559.29	-115.25	470.79	459.33	-99.305	540.39	376.87	-31.482	575.48	192.62	-35.763	559.67	283.57	-37.797	745.3	95.082	-89.452	473.69	668.28	-96.151	474.35	1575.8	70.64	409.04	641.99	-129.96	465.8	1574	-1.6586	521.26	279.15	-98.97	252.81	1310.6	139.97	336.82	647.25	186.92	715.88	86.719	-59.955	557.94	789.56	267.28	538.59	836.13	223.03	291.78	1416.1	39.891	233.63	974.8	106.45	676.18	53.38	-116.04	375.43	732.87	-139.29	255.57	1131.4	43.121	587.07	91.431	-0.66793	304.49	451.47	150.51	289.81	326.16	71.388	227.17	962.94	-7.6597	563.04	68.941	-76.497	302.34	1548.5	111.79	255.73	1030.6	-191.91	294.33	1555.4	-15.774	239.71	246.49	137.66	247.57	243.28	66.672	323.89	26.703	107.7	351.37	1006.8	216.82	253.53	790.23	-224.16	205.34	161.24	61.577	310.71	785.99	-180.04	280.22	37.324	69.157	129.25	73.77	108.78	151.58	85.774	29.409	434.64	937.87	-102.93	229.74	21.733	151.81	78.655	46.613	60.086	247.34	1016.5	-122.26	535.95	25.491	-14.951
458	2.29	420.52	1335.4	26.185	494.09	1111.4	27.388	453.29	941.71	174.08	379.89	1349	201.9	386.9	1139.7	267.43	385.79	1031.5	293.23	491.1	918.17	275.45	506.14	805.74	277.34	346.09	1348.7	-138.29	294.73	1145.3	-181.67	298.71	903.87	-213.83	300.25	743.51	-223.31	351.04	738.33	211.3	332.27	555.22	166.55	406.39	651.07	156.46	445.98	557.75	-115.23	475.76	458.1	-99.403	546.62	376.69	-31.476	585.29	193.01	-36.283	567.78	283.71	-38.063	757.38	98.238	-89.609	478.2	666.65	-96.011	479.43	1575.1	69.89	413.64	640.51	-130.13	470.91	1573.2	-2.4269	529.59	278.78	-99.362	258.07	1309.8	139.38	340.94	646.61	186.76	727.95	89.221	-60.379	564.74	789.6	266.63	545.11	836.08	222.42	297.08	1415.2	39.232	238.83	973.89	105.67	688.88	55.44	-116.66	380.32	731.48	-139.69	260.86	1130.5	42.466	598.77	91.861	-1.3518	307.32	450.95	150.35	291.8	325.58	71.337	232.61	961.94	-8.429	575.33	69.132	-77.354	307.45	1547.6	111.02	259.87	1029.7	-191.64	299.45	1554.4	-16.561	241.03	246.34	137.59	248.97	243.01	66.626	323.93	26.69	107.73	357.42	1005.9	216.77	255.18	789.59	-224.19	206.17	161.26	61.571	312.68	784.71	-180.56	280.26	37.25	69.075	129.48	74.294	108.78	151.86	86.113	29.431	440.24	936.67	-103	229.76	21.751	151.76	78.751	47.395	60.128	251.88	1015.8	-122	548.79	24.953	-15.975
459	2.295	425.87	1334.5	25.578	499.41	1110.4	26.97	458.23	940.94	174.08	385.16	1348.1	201.27	392.47	1138.9	266.96	391.63	1030.8	292.92	497.33	917.83	274.93	512.77	805.47	276.78	351.45	1347.7	-138.92	299.46	1144.3	-181.88	301.63	902.84	-214.07	301.51	742.43	-223.77	355.63	737.62	211.01	335.91	554.59	166.37	410.34	650.05	155.85	450.49	556.3	-115.21	480.86	456.95	-99.519	552.79	376.47	-31.466	594.64	193.35	-36.752	575.63	283.81	-38.299	768.75	101.1	-89.746	482.84	665.13	-95.873	484.52	1574.3	69.114	418.38	639.12	-130.3	476.02	1572.3	-3.2222	537.68	278.42	-99.738	263.35	1309	138.75	345.07	645.97	186.59	739.3	91.505	-60.763	571.45	789.58	265.98	551.55	835.96	221.82	302.39	1414.3	38.542	244.06	972.98	104.86	700.79	57.325	-117.23	385.31	730.16	-140.11	266.18	1129.6	41.782	609.79	92.268	-1.9723	310.19	450.43	150.18	293.81	325.02	71.295	238.08	960.95	-9.2204	586.9	69.343	-78.146	312.58	1546.7	110.22	264.06	1028.8	-191.42	304.58	1553.4	-17.374	242.36	246.23	137.52	250.38	242.76	66.588	323.97	26.678	107.74	363.4	1005	216.66	256.92	788.96	-224.23	207	161.31	61.576	314.71	783.45	-181.09	280.3	37.177	68.996	129.72	74.855	108.78	152.16	86.487	29.461	445.9	935.46	-103.04	229.78	21.764	151.71	78.85	48.224	60.178	256.47	1015	-121.78	560.85	24.511	-16.918
460	2.3	431.24	1333.6	24.935	504.75	1109.5	26.511	463.22	940.18	174.06	390.46	1347.3	200.6	398.04	1138.2	266.46	397.44	1030.1	292.58	503.49	917.45	274.41	519.3	805.16	276.24	356.84	1346.6	-139.59	304.25	1143.2	-182.15	304.62	901.83	-214.33	302.85	741.38	-224.24	360.26	736.9	210.72	339.57	553.97	166.18	414.32	649.05	155.26	455.2	554.96	-115.2	486.1	455.89	-99.655	558.92	376.2	-31.456	603.53	193.62	-37.164	583.21	283.85	-38.504	779.39	103.6	-89.854	487.62	663.73	-95.739	489.62	1573.6	68.312	423.29	637.81	-130.48	481.15	1571.5	-4.0444	545.53	278.08	-100.09	268.65	1308.1	138.09	349.24	645.34	186.4	749.91	93.512	-61.098	578.06	789.51	265.35	557.91	835.79	221.22	307.72	1413.4	37.822	249.34	972.07	104.03	711.9	58.975	-117.74	390.42	728.91	-140.54	271.53	1128.7	41.069	620.13	92.616	-2.5227	313.08	449.93	150.02	295.86	324.48	71.261	243.57	959.96	-10.031	597.74	69.535	-78.863	317.72	1545.8	109.39	268.31	1028	-191.24	309.72	1552.3	-18.214	243.71	246.14	137.46	251.82	242.53	66.559	324.01	26.668	107.75	369.32	1004	216.5	258.73	788.35	-224.29	207.86	161.38	61.593	316.81	782.2	-181.61	280.34	37.106	68.921	129.98	75.458	108.79	152.46	86.9	29.504	451.63	934.26	-103.08	229.8	21.773	151.66	78.954	49.104	60.239	261.13	1014.2	-121.6	572.1	24.136	-17.768
